<svg width="35" height="11" viewBox="0 0 35 11" fill="none" xmlns="http://www.w3.org/2000/svg">
<path d="M0.387695 1.00586H1.47461V6.56348C1.47461 7.58887 1.44271 8.51628 1.37891 9.3457H1.43359L7.03906 1.00586H8.31055V11H7.2168V5.49707C7.2168 4.58105 7.25553 3.61947 7.33301 2.6123H7.27148L1.65918 11H0.387695V1.00586ZM14.7705 9.90625L14.9824 9.27051L15.2764 8.46387L17.3066 3.52148H18.749V11H17.7441V4.81348L17.6074 5.20996L17.2109 6.25586L15.2764 11H14.3262L12.3916 6.24219C12.1501 5.63151 11.9837 5.15527 11.8926 4.81348V11H10.8809V3.52148H12.2686L14.2305 8.27246C14.4264 8.77376 14.6064 9.31836 14.7705 9.90625ZM21.5518 11H20.2256L22.3789 7.83496C21.8001 7.70736 21.3558 7.46126 21.0459 7.09668C20.7406 6.72754 20.5879 6.26497 20.5879 5.70898C20.5879 5.02539 20.818 4.48763 21.2783 4.0957C21.7386 3.70378 22.3812 3.50781 23.2061 3.50781H26.542V11H25.4072V8.00586H23.5137L21.5518 11ZM21.6953 5.72266C21.6953 6.58854 22.3242 7.02148 23.582 7.02148H25.4072V4.49219H23.3496C22.2467 4.49219 21.6953 4.90234 21.6953 5.72266Z" fill="#B0B0B0"/>
<path d="M32.3457 0.363281L32.0654 2.97461L34.6973 2.23633L34.8887 3.71973L32.4277 3.91797L34.041 6.04395L32.6807 6.77539L31.5459 4.46484L30.5273 6.77539L29.126 6.04395L30.7051 3.91797L28.2578 3.71973L28.4971 2.23633L31.0674 2.97461L30.7871 0.363281H32.3457Z" fill="#9873FF"/>
</svg>
