<svg width="63" height="12" viewBox="0 0 63 12" fill="none" xmlns="http://www.w3.org/2000/svg">
<path d="M10.0488 5.98926C10.0488 7.58887 9.64323 8.84668 8.83203 9.7627C8.02539 10.6787 6.90202 11.1367 5.46191 11.1367C3.98991 11.1367 2.85286 10.6878 2.05078 9.79004C1.25326 8.8877 0.854492 7.61621 0.854492 5.97559C0.854492 4.34863 1.25553 3.08854 2.05762 2.19531C2.8597 1.29753 3.99902 0.848633 5.47559 0.848633C6.91113 0.848633 8.03223 1.30436 8.83887 2.21582C9.64551 3.12728 10.0488 4.38509 10.0488 5.98926ZM2.08496 5.98926C2.08496 7.34277 2.37207 8.37044 2.94629 9.07227C3.52507 9.76953 4.36361 10.1182 5.46191 10.1182C6.56934 10.1182 7.4056 9.76953 7.9707 9.07227C8.53581 8.375 8.81836 7.34733 8.81836 5.98926C8.81836 4.64486 8.53581 3.6263 7.9707 2.93359C7.41016 2.23633 6.57845 1.8877 5.47559 1.8877C4.36816 1.8877 3.52507 2.23861 2.94629 2.94043C2.37207 3.6377 2.08496 4.65397 2.08496 5.98926ZM17.165 4.47852H14.7314V11H13.5967V4.47852H11.1904V3.50781H17.165V4.47852ZM19.6465 3.50781V6.24219C19.6465 7.11719 20.1455 7.55469 21.1436 7.55469C21.5583 7.55469 21.9548 7.49089 22.333 7.36328C22.7113 7.23568 23.1396 7.01921 23.6182 6.71387V3.50781H24.7529V11H23.6182V7.60938C23.1396 7.9375 22.6953 8.16992 22.2852 8.30664C21.8796 8.4388 21.4193 8.50488 20.9043 8.50488C20.1569 8.50488 19.5713 8.30892 19.1475 7.91699C18.7236 7.52507 18.5117 6.99414 18.5117 6.32422V3.50781H19.6465ZM30.3311 11.1367C29.2236 11.1367 28.3486 10.7995 27.7061 10.125C27.068 9.45052 26.749 8.514 26.749 7.31543C26.749 6.10775 27.0452 5.14844 27.6377 4.4375C28.2347 3.72656 29.0345 3.37109 30.0371 3.37109C30.9759 3.37109 31.7188 3.68099 32.2656 4.30078C32.8125 4.91602 33.0859 5.72949 33.0859 6.74121V7.45898H27.9248C27.9476 8.33854 28.1686 9.00618 28.5879 9.46191C29.0117 9.91764 29.6064 10.1455 30.3721 10.1455C31.1787 10.1455 31.9762 9.97689 32.7646 9.63965V10.6514C32.3636 10.8245 31.9831 10.9476 31.623 11.0205C31.2676 11.098 30.8369 11.1367 30.3311 11.1367ZM30.0234 4.32129C29.4219 4.32129 28.9411 4.51725 28.5811 4.90918C28.2256 5.30111 28.016 5.84342 27.9521 6.53613H31.8691C31.8691 5.82064 31.7096 5.27376 31.3906 4.89551C31.0716 4.5127 30.6159 4.32129 30.0234 4.32129ZM38.0215 11.1367C36.9368 11.1367 36.096 10.804 35.499 10.1387C34.9066 9.46875 34.6104 8.52311 34.6104 7.30176C34.6104 6.0485 34.9111 5.08008 35.5127 4.39648C36.1188 3.71289 36.9801 3.37109 38.0967 3.37109C38.4567 3.37109 38.8167 3.40983 39.1768 3.4873C39.5368 3.56478 39.8193 3.65592 40.0244 3.76074L39.6758 4.72461C39.4251 4.62435 39.1517 4.54232 38.8555 4.47852C38.5592 4.41016 38.2972 4.37598 38.0693 4.37598C36.5472 4.37598 35.7861 5.34668 35.7861 7.28809C35.7861 8.20866 35.9707 8.91504 36.3398 9.40723C36.7135 9.89941 37.265 10.1455 37.9941 10.1455C38.6185 10.1455 39.2588 10.0111 39.915 9.74219V10.7471C39.4137 11.0068 38.7826 11.1367 38.0215 11.1367ZM46.751 4.47852H44.3174V11H43.1826V4.47852H40.7764V3.50781H46.751V4.47852ZM54.3115 5.3877C54.3115 5.87533 54.1702 6.24674 53.8877 6.50195C53.6097 6.7526 53.2178 6.92122 52.7119 7.00781V7.06934C53.3499 7.15592 53.8148 7.34277 54.1064 7.62988C54.4027 7.91699 54.5508 8.31348 54.5508 8.81934C54.5508 9.5166 54.2933 10.0544 53.7783 10.4326C53.2679 10.8109 52.5205 11 51.5361 11H48.2344V3.50781H51.5225C53.3818 3.50781 54.3115 4.13444 54.3115 5.3877ZM53.416 8.74414C53.416 8.33854 53.2611 8.0446 52.9512 7.8623C52.6458 7.67546 52.1377 7.58203 51.4268 7.58203H49.3691V10.0498H51.4541C52.762 10.0498 53.416 9.61458 53.416 8.74414ZM53.2041 5.49707C53.2041 5.13249 53.0628 4.875 52.7803 4.72461C52.5023 4.56966 52.0785 4.49219 51.5088 4.49219H49.3691V6.60449H51.29C51.9919 6.60449 52.4863 6.5179 52.7734 6.34473C53.0605 6.17155 53.2041 5.889 53.2041 5.49707ZM62.6719 7.24707C62.6719 8.46842 62.3643 9.42318 61.749 10.1113C61.1338 10.7949 60.2839 11.1367 59.1992 11.1367C58.5293 11.1367 57.9346 10.9795 57.415 10.665C56.8955 10.3506 56.4945 9.89941 56.2119 9.31152C55.9294 8.72363 55.7881 8.03548 55.7881 7.24707C55.7881 6.02572 56.0934 5.07552 56.7041 4.39648C57.3148 3.71289 58.1624 3.37109 59.2471 3.37109C60.2952 3.37109 61.127 3.71973 61.7422 4.41699C62.362 5.11426 62.6719 6.05762 62.6719 7.24707ZM56.9639 7.24707C56.9639 8.2041 57.1553 8.93327 57.5381 9.43457C57.9209 9.93587 58.4837 10.1865 59.2266 10.1865C59.9694 10.1865 60.5322 9.93815 60.915 9.44141C61.3024 8.9401 61.4961 8.20866 61.4961 7.24707C61.4961 6.2946 61.3024 5.57227 60.915 5.08008C60.5322 4.58333 59.9648 4.33496 59.2129 4.33496C58.4701 4.33496 57.9095 4.57878 57.5312 5.06641C57.153 5.55404 56.9639 6.28092 56.9639 7.24707Z" fill="#B0B0B0"/>
</svg>
