<svg width="70" height="12" viewBox="0 0 70 12" fill="none" xmlns="http://www.w3.org/2000/svg">
<path d="M4.99707 0.862305H6.17285V2.09277H6.65137C7.43066 2.09277 8.10514 2.24772 8.6748 2.55762C9.24902 2.86751 9.68652 3.30501 9.9873 3.87012C10.2926 4.43522 10.4453 5.08008 10.4453 5.80469C10.4453 6.5612 10.2744 7.23568 9.93262 7.82812C9.59538 8.41602 9.13053 8.85807 8.53809 9.1543C7.9502 9.45052 7.25521 9.59863 6.45312 9.59863H6.17285V11.1367H4.99707V9.59863H4.68945C3.88737 9.59863 3.19238 9.44824 2.60449 9.14746C2.0166 8.84668 1.55632 8.40007 1.22363 7.80762C0.890951 7.21517 0.724609 6.55208 0.724609 5.81836C0.724609 5.09831 0.877279 4.45573 1.18262 3.89062C1.49251 3.32552 1.93457 2.88574 2.50879 2.57129C3.08301 2.25228 3.75977 2.09277 4.53906 2.09277H4.99707V0.862305ZM6.17285 8.62109H6.34375C7.25977 8.62109 7.9707 8.37272 8.47656 7.87598C8.98698 7.37467 9.24219 6.67969 9.24219 5.79102C9.24219 4.94792 9.00749 4.28711 8.53809 3.80859C8.06868 3.33008 7.41243 3.09082 6.56934 3.09082H6.17285V8.62109ZM4.99707 3.09082H4.60742C3.77799 3.09082 3.12402 3.33236 2.64551 3.81543C2.17155 4.2985 1.93457 4.95703 1.93457 5.79102C1.93457 6.6888 2.1875 7.38607 2.69336 7.88281C3.19922 8.375 3.91243 8.62109 4.83301 8.62109H4.99707V3.09082ZM16.9805 11L16.7549 9.93359H16.7002C16.3265 10.403 15.9528 10.722 15.5791 10.8906C15.21 11.0547 14.7474 11.1367 14.1914 11.1367C13.4486 11.1367 12.8652 10.9453 12.4414 10.5625C12.0221 10.1797 11.8125 9.63509 11.8125 8.92871C11.8125 7.41569 13.0225 6.62272 15.4424 6.5498L16.7139 6.50879V6.04395C16.7139 5.45605 16.5863 5.02311 16.3311 4.74512C16.0804 4.46257 15.6771 4.32129 15.1211 4.32129C14.4967 4.32129 13.7904 4.5127 13.002 4.89551L12.6533 4.02734C13.0225 3.82682 13.4258 3.6696 13.8633 3.55566C14.3053 3.44173 14.7474 3.38477 15.1895 3.38477C16.0827 3.38477 16.7435 3.58301 17.1719 3.97949C17.6048 4.37598 17.8213 5.01172 17.8213 5.88672V11H16.9805ZM14.417 10.2002C15.1234 10.2002 15.6771 10.0065 16.0781 9.61914C16.4837 9.23177 16.6865 8.68945 16.6865 7.99219V7.31543L15.5518 7.36328C14.6494 7.39518 13.9977 7.53646 13.5967 7.78711C13.2002 8.0332 13.002 8.41829 13.002 8.94238C13.002 9.35254 13.125 9.66471 13.3711 9.87891C13.6217 10.0931 13.9704 10.2002 14.417 10.2002ZM24.0557 9.90625L24.2676 9.27051L24.5615 8.46387L26.5918 3.52148H28.0342V11H27.0293V4.81348L26.8926 5.20996L26.4961 6.25586L24.5615 11H23.6113L21.6768 6.24219C21.4352 5.63151 21.2689 5.15527 21.1777 4.81348V11H20.166V3.52148H21.5537L23.5156 8.27246C23.7116 8.77376 23.8916 9.31836 24.0557 9.90625ZM31.5273 3.50781V8.25879L31.4795 9.50293L31.459 9.89258L35.5127 3.50781H36.9277V11H35.8682V6.41992L35.8887 5.51758L35.9229 4.62891L31.876 11H30.4609V3.50781H31.5273ZM44.9189 11H43.7705V4.47852H41.5215C41.3984 6.10091 41.2275 7.38835 41.0088 8.34082C40.79 9.29329 40.5052 9.99056 40.1543 10.4326C39.8079 10.8747 39.3659 11.0957 38.8281 11.0957C38.582 11.0957 38.3861 11.0684 38.2402 11.0137V10.1729C38.3405 10.2002 38.4544 10.2139 38.582 10.2139C39.1061 10.2139 39.5231 9.66016 39.833 8.55273C40.1429 7.44531 40.3776 5.76367 40.5371 3.50781H44.9189V11ZM48.3984 3.50781V8.25879L48.3506 9.50293L48.3301 9.89258L52.3838 3.50781H53.7988V11H52.7393V6.41992L52.7598 5.51758L52.7939 4.62891L48.7471 11H47.332V3.50781H48.3984ZM56.5811 11H55.2549L57.4082 7.83496C56.8294 7.70736 56.3851 7.46126 56.0752 7.09668C55.7699 6.72754 55.6172 6.26497 55.6172 5.70898C55.6172 5.02539 55.8473 4.48763 56.3076 4.0957C56.7679 3.70378 57.4105 3.50781 58.2354 3.50781H61.5713V11H60.4365V8.00586H58.543L56.5811 11ZM56.7246 5.72266C56.7246 6.58854 57.3535 7.02148 58.6113 7.02148H60.4365V4.49219H58.3789C57.276 4.49219 56.7246 4.90234 56.7246 5.72266Z" fill="#B0B0B0"/>
<path d="M67.375 0.363281L67.0947 2.97461L69.7266 2.23633L69.918 3.71973L67.457 3.91797L69.0703 6.04395L67.71 6.77539L66.5752 4.46484L65.5566 6.77539L64.1553 6.04395L65.7344 3.91797L63.2871 3.71973L63.5264 2.23633L66.0967 2.97461L65.8164 0.363281H67.375Z" fill="#9873FF"/>
</svg>
